<?xml version="1.0" encoding="UTF-8"?>
<svg version="1.1" xmlns="http://www.w3.org/2000/svg" width="512" height="512">
<path d="M0 0 C1.01790619 0.00215515 2.03581238 0.0043103 3.08456421 0.00653076 C17.69363523 0.05620146 32.02575853 0.30709809 46.375 3.3125 C47.34985352 3.51117676 48.32470703 3.70985352 49.32910156 3.91455078 C97.7109774 14.03517194 141.69928269 35.9516877 177.375 70.3125 C178.3640332 71.26068604 178.3640332 71.26068604 179.37304688 72.22802734 C188.86130305 81.37247479 197.6012044 90.66984009 205.375 101.3125 C206.23306152 102.46355017 207.09113451 103.61459177 207.94921875 104.765625 C213.98736829 112.95680614 219.34595521 121.47054105 224.375 130.3125 C224.73948242 130.94430176 225.10396484 131.57610352 225.47949219 132.22705078 C247.08534998 169.97532572 256.85198095 212.74189997 256.6875 255.9375 C256.68534485 256.95540619 256.6831897 257.97331238 256.68096924 259.02206421 C256.63129854 273.63113523 256.38040191 287.96325853 253.375 302.3125 C253.07698486 303.77478027 253.07698486 303.77478027 252.77294922 305.26660156 C242.65232806 353.6484774 220.7358123 397.63678269 186.375 433.3125 C185.74287598 433.97185547 185.11075195 434.63121094 184.45947266 435.31054688 C175.31502521 444.79880305 166.01765991 453.5387044 155.375 461.3125 C154.22394983 462.17056152 153.07290823 463.02863451 151.921875 463.88671875 C143.73224019 469.92427396 135.22961724 475.30707302 126.375 480.3125 C125.66778809 480.7146875 124.96057617 481.116875 124.23193359 481.53125 C101.09654164 494.5566741 75.92537591 503.30551461 49.9375 508.625 C49.21860596 508.77235596 48.49971191 508.91971191 47.7590332 509.0715332 C33.08339502 511.86090125 18.55831162 512.66142619 3.64770508 512.62817383 C0.70811513 512.6250221 -2.2304558 512.64854926 -5.16992188 512.67382812 C-18.54306192 512.71848737 -31.43916711 511.51301542 -44.625 509.3125 C-46.33055054 509.03031616 -46.33055054 509.03031616 -48.07055664 508.74243164 C-91.33802759 500.97044532 -132.38793216 480.98345309 -165.625 452.3125 C-166.37007813 451.67828125 -167.11515625 451.0440625 -167.8828125 450.390625 C-181.38779833 438.57948485 -194.05918743 425.82889772 -204.625 411.3125 C-205.48149066 410.16255169 -206.33826433 409.01281411 -207.1953125 407.86328125 C-213.23534209 399.67315742 -218.61867614 391.16870382 -223.625 382.3125 C-224.0271875 381.60528809 -224.429375 380.89807617 -224.84375 380.16943359 C-237.8691741 357.03404164 -246.61801461 331.86287591 -251.9375 305.875 C-252.08485596 305.15610596 -252.23221191 304.43721191 -252.3840332 303.6965332 C-255.35789088 288.05024391 -255.99800362 272.57681954 -255.9375 256.6875 C-255.93534485 255.66959381 -255.9331897 254.65168762 -255.93096924 253.60293579 C-255.88129854 238.99386477 -255.63040191 224.66174147 -252.625 210.3125 C-252.42632324 209.33764648 -252.22764648 208.36279297 -252.02294922 207.35839844 C-241.90232806 158.9765226 -219.9858123 114.98821731 -185.625 79.3125 C-184.99287598 78.65314453 -184.36075195 77.99378906 -183.70947266 77.31445312 C-174.56502521 67.82619695 -165.26765991 59.0862956 -154.625 51.3125 C-153.47394983 50.45443848 -152.32290823 49.59636549 -151.171875 48.73828125 C-142.98224019 42.70072604 -134.47961724 37.31792698 -125.625 32.3125 C-124.91778809 31.9103125 -124.21057617 31.508125 -123.48193359 31.09375 C-100.34654164 18.0683259 -75.17537591 9.31948539 -49.1875 4 C-48.46860596 3.85264404 -47.74971191 3.70528809 -47.0090332 3.5534668 C-31.36274391 0.57960912 -15.88931954 -0.06050362 0 0 Z " fill="#EA5402" transform="translate(255.625,-0.3125)"/>
<path d="M0 0 C8.98089047 8.2050036 11.61160468 19.15675874 12.15258789 30.93432617 C12.19137952 34.38434124 12.17182632 37.82752914 12.12109375 41.27734375 C12.11207031 42.46328125 12.10304688 43.64921875 12.09375 44.87109375 C12.07047872 47.75673282 12.03779059 50.6419223 11.99609375 53.52734375 C12.62773437 52.69074219 13.259375 51.85414063 13.91015625 50.9921875 C29.36874427 30.77620727 48.11959683 8.81950939 72.99609375 0.52734375 C79.21796796 0.01943565 84.74113276 -0.22619981 89.99609375 3.52734375 C93.85782805 7.37855561 95.82419162 10.56765942 96.30859375 16.08984375 C96.08288505 26.3671131 89.4406539 34.81493856 83.83303833 42.95819092 C81.55015316 46.27790794 79.30334311 49.62188621 77.0546875 52.96484375 C76.61132553 53.62294037 76.16796356 54.28103699 75.71116638 54.95907593 C62.15485439 75.13944269 50.65170701 96.64273964 40.24609375 118.58984375 C24.22330395 152.29524931 24.22330395 152.29524931 4.99609375 160.52734375 C-1.31830239 162.63214246 -8.59928358 162.48642748 -14.75390625 159.90234375 C-27.3843968 153.33631256 -33.45184293 144.26924906 -38.05859375 130.921875 C-40.10617641 123.56919182 -40.27930876 116.17204136 -40.56640625 108.58984375 C-40.60958984 107.52443359 -40.65277344 106.45902344 -40.69726562 105.36132812 C-40.80265114 102.75010932 -40.90477713 100.13880629 -41.00390625 97.52734375 C-43.01272545 101.33525459 -45.01049407 105.14884539 -47.00390625 108.96484375 C-47.46692642 109.8504599 -47.46692642 109.8504599 -47.93930054 110.75396729 C-51.81415302 118.18024 -55.57854408 125.64782046 -59.1796875 133.2109375 C-59.52571014 133.93552658 -59.87173279 134.66011566 -60.22824097 135.40666199 C-61.91180776 138.93653791 -63.58192482 142.47187886 -65.23242188 146.01733398 C-72.99040389 162.47608265 -81.68039026 176.24609161 -99.00390625 183.52734375 C-106.55723179 186.04511893 -116.55594529 185.55341266 -123.921875 182.62890625 C-141.00214451 173.59206572 -148.27031242 156.50907566 -153.72265625 138.97265625 C-159.17301971 120.56975752 -160.41882313 101.55154333 -160.37890625 82.46484375 C-160.3790271 81.57058685 -160.37914795 80.67632996 -160.37927246 79.75497437 C-160.35158732 65.32087738 -159.38633401 51.61286673 -156.00390625 37.52734375 C-155.84374023 36.81143066 -155.68357422 36.09551758 -155.51855469 35.35791016 C-152.74167437 23.10367292 -147.44697393 11.94520802 -136.60546875 4.98828125 C-128.52756724 0.74797518 -119.94410533 -0.23691156 -111.13671875 2.37890625 C-103.48758638 5.79660369 -98.09966556 11.29504732 -94.82421875 19.0078125 C-91.76874574 27.75525362 -92.5830814 37.07974294 -92.75390625 46.21484375 C-92.77400642 48.09177777 -92.79225095 49.96873263 -92.80859375 51.84570312 C-92.85230062 56.40677181 -92.92113241 60.96682363 -93.00390625 65.52734375 C-92.51181419 64.71878433 -92.51181419 64.71878433 -92.00978088 63.89389038 C-56.16681758 5.11029371 -56.16681758 5.11029371 -27.81640625 -4.53515625 C-17.89626042 -6.90560026 -8.38422353 -6.1615054 0 0 Z " fill="#FEFEFD" transform="translate(288.00390625,166.47265625)"/>
<path d="M0 0 C0.66 0 1.32 0 2 0 C3.19921875 1.22265625 3.19921875 1.22265625 4.6875 3.0625 C10.66763621 10.12877206 17.4184 16.500908 24 23 C22.64540342 26.82554411 20.9098767 29.66840234 18.4375 32.875 C14.52401442 38.11448345 11.15957568 43.56784238 7.88256836 49.22412109 C6.94566782 50.83029585 5.97608529 52.41733217 5 54 C4.67 54 4.34 54 4 54 C4.02094727 52.79053711 4.04189453 51.58107422 4.06347656 50.33496094 C4.1365484 45.79504503 4.18204117 41.25517976 4.21972656 36.71484375 C4.23969039 34.75967634 4.26687136 32.80456745 4.30175781 30.84960938 C4.60581611 15.01214922 4.60581611 15.01214922 0 0 Z " fill="#A03A1D" transform="translate(190,180)"/>
<path d="M0 0 C3.24900717 1.08300239 3.74706612 1.63159369 5.8125 4.1875 C11.44653654 10.8581017 17.79254372 16.8700293 24 23 C21.59628939 26.72842224 19.13739395 30.1206467 16.125 33.375 C12.87585026 36.9521013 9.93957723 40.63759369 7.12890625 44.56640625 C6.75636719 45.03949219 6.38382812 45.51257813 6 46 C5.67 46 5.34 46 5 46 C5.01047363 45.24493164 5.02094727 44.48986328 5.03173828 43.71191406 C5.07382418 40.22464451 5.09949112 36.7374287 5.125 33.25 C5.14175781 32.06277344 5.15851563 30.87554687 5.17578125 29.65234375 C5.23224287 19.31986802 4.68049897 9.36099793 0 0 Z " fill="#B03F17" transform="translate(294,175)"/>
</svg>
